<svg xmlns="http://www.w3.org/2000/svg" version="1.1" xmlns:xlink="http://www.w3.org/1999/xlink" xmlns:svgjs="http://svgjs.dev/svgjs" viewBox="0 0 14.10373198975538 3.92857480825653"><g transform="matrix(0.7233256583212262,0,0,0.7233256583212262,3.640779699130907,1.5460264613221557)"><g clip-path="url(#SvgjsClipPath3359)"><g clip-path="url(#SvgjsClipPath335719bc434f-0845-48f8-8132-36ca0433d684)"><path d=" M -1.5602389413037305 1.0596533388492855 C -1.5566368318420016 1.051248753009149 -1.5570272032678456 1.0404182155432888 -1.5559014810165743 1.0314094113980343 C -1.5531688810356656 1.0095506289741554 -1.5501609027621073 0.9877009249555285 -1.5474283027811988 0.9658431512433446 C -1.5458960697169686 0.9535822605944179 -1.5460534287413397 0.940891658763554 -1.539661222732105 0.9299330149124686 C -1.5256774525086518 0.9059599727765245 -1.4959547537129887 0.912792985796338 -1.4740949625774151 0.9190389286098432 C -1.4688637837287657 0.9205338393413703 -1.4636356310152001 0.9220569940003486 -1.4583590601402898 0.9233763888969998 C -1.4548759786585337 0.9242469070895148 -1.4519910632117274 0.925848741260679 -1.4482719431934143 0.9249903276084995 C -1.4471734561578997 0.924737140973133 -1.4462444326870927 0.9226410380715725 -1.4459519062956332 0.9217624501854998 C -1.4448715760706228 0.9185224682221637 -1.4449088984033263 0.9147337470969167 -1.4442370964146642 0.9113727197302178 C -1.4415831759459414 0.8981021086749091 -1.4385348492045957 0.8849374123475419 -1.43243516958682 0.8727390618236855 C -1.42443003357778 0.856728789805605 -1.4138496566122023 0.8437769316458171 -1.4000555241873505 0.8324914652056533 C -1.3938438775714646 0.8274095756878174 -1.3854624921003058 0.8239507032867338 -1.3798812902935997 0.8183695014800277 C -1.3798812902935997 0.8065685833638784 -1.3825261323570703 0.7946385501508085 -1.3833109100555374 0.7828628498270264 C -1.3846232439703259 0.7631788498168938 -1.3867556604928954 0.7433092468549388 -1.3893631802236626 0.7237523445183373 C -1.3961588709107724 0.6727881948559441 -1.4002370922923943 0.6214266127858442 -1.4066121502028195 0.5704281669258321 C -1.4102636865375882 0.5412178936710704 -1.4127088036855109 0.5118421916983803 -1.4165983959802257 0.48267024948801673 C -1.4179369563990762 0.47263356812587587 -1.418919441589702 0.4624829023422351 -1.419927144572695 0.45240889864739076 C -1.4204869795632462 0.4468105487418751 -1.4204254481498704 0.44066043353936524 -1.4220454391315387 0.4352607998377028 C -1.4220454391315387 0.4299166452792481 -1.4229532796567574 0.4244141229847279 -1.4236593778430386 0.4191214127227022 C -1.42526928170776 0.40704511631390317 -1.4262840456726158 0.394897201374781 -1.4277950957912577 0.3828077917139511 C -1.432116416691299 0.34823722451362005 -1.4349922537328532 0.31344272331706813 -1.4395970226191017 0.2789104871611352 C -1.4415044964337558 0.26460695533046585 -1.444222974450939 0.2499332263078463 -1.4449431946009457 0.23553588428957128 C -1.445600874625882 0.22238732734931932 -1.4433464039882553 0.20959181950220807 -1.4406057343137892 0.1968013552135699 C -1.437442414439249 0.18203785085012325 -1.4346886315127523 0.16717044918212365 -1.4315273290616015 0.15241804064731856 C -1.4286535094434367 0.13900822737814256 -1.4263314551222661 0.12547938612899334 -1.4234576355041013 0.11206957285981733 C -1.4219173327463133 0.1048794759000845 -1.4211315463361518 0.09732422530687501 -1.4190193040474761 0.09028140025456666 C -1.4182274653671463 0.08236200473957456 -1.4160446132598423 0.07444866149475127 -1.4143792302519134 0.06667754659887815 C -1.412518157175215 0.05799354761931341 -1.411200779701953 0.04915319832707188 -1.4093356717784757 0.04045104253700238 C -1.4007172390590654 0.00023269855811602902 -1.3937500673838588 -0.040350799054247544 -1.3851265911059751 -0.08059436082550142 C -1.3818230603058732 -0.09601151036710553 -1.3793496992304994 -0.11158904506816514 -1.3760481858537874 -0.1269950987811279 C -1.3747015557413793 -0.13328038135072595 -1.3741608862730268 -0.14185443075557003 -1.369895044516193 -0.1470684615054097 C -1.3631286064682295 -0.15533787997845822 -1.3514265420981593 -0.16014741733872828 -1.3419537305733487 -0.16451917382350406 C -1.3234358012822747 -0.1730659880125917 -1.3048361663439314 -0.1823874927831991 -1.2868780720434094 -0.19205700308847373 C -1.2756289192242538 -0.1981143168150723 -1.263830018531494 -0.2031477881715631 -1.2525818744240331 -0.20920510189816188 C -1.245100259784536 -0.21323389640674367 -1.2377225424495912 -0.21743618932681197 -1.2299867324630323 -0.22100702872600586 C -1.2252931969476513 -0.22317374144619484 -1.2208185518700176 -0.22592046339082877 -1.216268253415282 -0.22837062409722492 C -1.2149276755730423 -0.2290928616706211 -1.2124058963363233 -0.230587772402148 -1.2108212102639693 -0.22988369163925615 C -1.2091860886068808 -0.22915641050738644 -1.209244593885173 -0.22581858350966522 -1.2091064003830005 -0.22443664848794342 C -1.2085021820778827 -0.2183985002835438 -1.208602044535657 -0.21233109943999845 -1.2079968175188442 -0.20627983798356797 C -1.2062245110712784 -0.18855979964299202 -1.206061099776739 -0.1705976704956912 -1.2051724247737192 -0.1528181181651287 C -1.204805253716853 -0.14547772316288748 -1.2057463817279965 -0.1369581441895567 -1.2039619707400941 -0.12981949152625294 C -1.2005252899962937 -0.12752870726761767 -1.1954857663696346 -0.1262879918831521 -1.1915548168954375 -0.12507854656122153 C -1.185597365626613 -0.12324571741197421 -1.1797387681038678 -0.12091256726216204 -1.1739023622384057 -0.11872366288469005 C -1.1715318897558902 -0.11783498788167046 -1.1686479830207783 -0.11734071915127342 -1.1666396380366555 -0.11569752780062759 C -1.1663218938528288 -0.11543828889509289 -1.164862288030616 -0.11417033829487055 -1.1650256993251555 -0.11368010441125243 C -1.165356556761013 -0.11268652339198515 -1.167364901745136 -0.11139940726956399 -1.1681527055786867 -0.11075484049665851 C -1.1712746682737447 -0.10820078248570975 -1.1740042421195693 -0.10514135991572238 -1.1771302396614058 -0.10258427576968954 C -1.1872334959953958 -0.0943178834317252 -1.1965449136490567 -0.08397657113778856 -1.2057776517905316 -0.0747438329963136 C -1.2089833375562486 -0.07153814723059682 -1.214971050175914 -0.0676989905206159 -1.216671738093157 -0.06344626201581349 C -1.218201953733998 -0.05962021855786348 -1.2114637596134854 -0.052703482467391205 -1.2096107562303446 -0.049526040629125356 C -1.20198993937698 -0.03646221547122708 -1.1931889298408311 -0.024113566904862216 -1.1853008043883748 -0.01129586740046784 C -1.167164168117893 0.018175662183217756 -1.1473641662628715 0.04636713662634473 -1.129216434163748 0.07585682302053498 C -1.1240477954401693 0.08425535659050332 -1.117775626122602 0.09219896118616766 -1.1127744335403413 0.10077200187931701 C -1.1055328922841794 0.1131862167058365 -1.0967944228731015 0.12470671297086267 -1.089574064562528 0.13708562288806814 C -1.0863451784278333 0.14262042395681862 -1.0829165673775902 0.14869690320561624 -1.0788817205988401 0.15362849468094353 C -1.0757456359400566 0.15746059040906146 -1.0733116146207755 0.16241538225336682 -1.0707111558718712 0.16664087554241303 C -1.0669264695934038 0.17279099074492277 -1.0627302289435034 0.17886444385863642 -1.0587074867050896 0.18489855721625703 C -1.0425448992211113 0.209142942798072 -1.0264650260960972 0.23346298175698832 -1.010289325360088 0.25772754157269706 C -1.0018524607457213 0.27038384720594144 -0.9930917996773602 0.2828172275546601 -0.984668048315025 0.2954533589540108 C -0.9826728165829329 0.2984462065521487 -0.981012477133477 0.3018354778462987 -0.9786157781468995 0.30453176420619854 C -0.9783151820618827 0.3048706913356135 -0.9763966124185871 0.307154414612386 -0.9757913854017742 0.3065491875955737 C -0.9744992257208797 0.3052570279146788 -0.9764662135255201 0.30022153913479865 -0.9770018394353992 0.29888297871594827 C -0.9799271033499931 0.2915688102177689 -0.9838953751568941 0.2848164941335306 -0.9869880852128059 0.27759916195804146 C -1.0001810254676242 0.24681529845956718 -1.0149778173169957 0.21637540564898172 -1.0299592034064948 0.18641162475828832 C -1.048911887437979 0.14850726540701498 -1.0684244064600144 0.11135036142150512 -1.0897758069014654 0.07474724015637857 C -1.1038079952862638 0.05069148366147025 -1.1162353233648141 0.025534213995963118 -1.130830372875248 0.001817384630469987 C -1.1406179024488012 -0.014086972659668406 -1.1492978665815874 -0.030713567523202867 -1.159074300326499 -0.046600776714531666 C -1.161376180413776 -0.05034107967843282 -1.1633915863797617 -0.054337595412784934 -1.1658326686809055 -0.057999218864500546 C -1.1679953465543154 -0.06124323567461565 -1.1705746223576317 -0.06402324510517465 -1.1703718713069995 -0.06808633581137591 C -1.1702427562100794 -0.07067771615502816 -1.1674042415012287 -0.07322673060750362 -1.1658326686809055 -0.0751473176741887 C -1.1632533928775892 -0.07829954172008713 -1.161052383959781 -0.08177455350828577 -1.1584690733096865 -0.08493182111265773 C -1.1514837448239756 -0.09346955689649306 -1.145622121166146 -0.10303617860890946 -1.139000937602217 -0.11186442336081492 C -1.1361614141816716 -0.11565011835097727 -1.1321326196730896 -0.1199623608457665 -1.1306286305363105 -0.1244733195444091 C -1.1334691626685507 -0.127313851676649 -1.1380497224741268 -0.12815511723001838 -1.1416235880084047 -0.12971862035678416 C -1.1504024058872702 -0.1335587857784596 -1.159316391133224 -0.13687240369550824 -1.1682535767481557 -0.14031009315100312 C -1.1718566949215794 -0.14169606301950388 -1.1782055263279427 -0.14283489852280623 -1.1807616017622808 -0.1459588786412535 C -1.1853764577654764 -0.1515985857262514 -1.1839642613929138 -0.16083737613789456 -1.1854016755578436 -0.16754530890756658 C -1.186954082855968 -0.1747888675871177 -1.1872516528059005 -0.18275567255176 -1.187620841286156 -0.1901404508685674 C -1.1878064442379788 -0.19386259702196446 -1.1887364764204804 -0.19809111644609462 -1.1875199701166874 -0.201740635357474 C -1.185910066251966 -0.20657135566333262 -1.1793534402364971 -0.21181564776401318 -1.1755163009499057 -0.21495475855788065 C -1.1675878270296618 -0.22144178346641613 -1.1603452770618052 -0.22874283871256457 -1.1524168031415614 -0.2352298636211001 C -1.148295207157068 -0.23860198681644035 -1.1445690261568924 -0.2430907538578 -1.139404422280092 -0.2448126247206317 C -1.1377965358387603 -0.24240079505863377 -1.1372054307856732 -0.2396197769163802 -1.1361765448570917 -0.236944673502069 C -1.1335095111363382 -0.23000978060109212 -1.1309514182786107 -0.22309607064570391 -1.1289138206553417 -0.21596347025256818 C -1.1243847051461948 -0.20011055725885907 -1.1193219811505581 -0.18440895101935278 -1.1147918569297164 -0.16855402060225416 C -1.1049720485819332 -0.13418317831747117 -1.0915259216917486 -0.10084223067296427 -1.0817061133439652 -0.06647239709987607 C -1.0778225733194182 -0.05288000701396145 -1.0724753926258797 -0.039712284551510546 -1.0685928613130273 -0.026123929312374727 C -1.0662334846591532 -0.01786560666796777 -1.063746001620054 -0.00956794426746832 -1.0607249100944647 -0.0015113639619988017 C -1.0561302283251628 0.01074145699337059 -1.0528156016964196 0.02364893183859218 -1.049225596775027 0.03621445341931506 C -1.0457112452307353 0.048512666400945426 -1.0408361416103107 0.060431603785373045 -1.0373227987777138 0.07272981676700341 C -1.034988639916207 0.08089735535888842 -1.0324365993286477 0.08899125799706142 -1.0307661727622448 0.09734238211737944 C -1.0300963881969722 0.10069231365543652 -1.029425594920005 0.10418850838922378 -1.028345264694995 0.1074294990642547 C -1.028255489354168 0.1076978163750415 -1.0269673645200514 0.11055146175931252 -1.0267313259834947 0.11035476297884861 C -1.0261936826502265 0.10990689498640704 -1.026162412587691 0.10715210334821546 -1.026126098966682 0.10642078736956717 C -1.0259566354019747 0.10303958576897443 -1.02585879036759 0.09971184588820037 -1.0255208719498696 0.09633367042269181 C -1.0240763968030773 0.08189194508985032 -1.0229325177413018 0.0674189496944737 -1.0214860251711197 0.05295906755112789 C -1.016477771606996 0.0028765319098918996 -1.01217057267068 -0.04725643931607826 -1.0071623191065564 -0.09733897495731447 C -1.0058883162361663 -0.11008001237291265 -1.00447309372852 -0.12288762476036019 -1.0038335705140877 -0.13567001935544054 C -1.0036247671932874 -0.13985112932992044 -1.0023457207644237 -0.14644911252487164 -1.0052457668866506 -0.1499937254200036 C -1.0097032638654748 -0.1554407685713161 -1.0152885005189596 -0.1602382013912501 -1.020275571137495 -0.16522527200978537 C -1.0251264656772467 -0.17007616654953767 -1.0296313721057215 -0.17538804233376215 -1.0344984060325886 -0.18025507626062953 C -1.037225962455024 -0.18298263268306458 -1.0417883654500957 -0.18984994190049748 -1.0461994616909642 -0.18852651215706734 C -1.048685936018369 -0.18778107421469326 -1.051742332453272 -0.18358886841157201 -1.0535630570621832 -0.181768143802661 C -1.0585531538158024 -0.17677804704904165 -1.0638246811322394 -0.17156502501089654 -1.0697024441771839 -0.1676461800770354 C -1.0720244984983542 -0.16609780762568999 -1.0770216562338364 -0.1615848315036581 -1.0799913034629967 -0.1640148179761602 C -1.0819895613301727 -0.16564993963324887 -1.082839905288794 -0.16877291104000142 -1.0840261502417468 -0.17097492866950437 C -1.0873448117172686 -0.17713815712404501 -1.0908672329551174 -0.18315814851794032 -1.0938106536802157 -0.18953522385175492 C -1.1011934145736337 -0.20553238261780443 -1.1099681976057205 -0.22102619424820497 -1.1183223478611228 -0.2365411888241939 C -1.119706300306234 -0.23911138622225775 -1.1213162041709552 -0.242654990405695 -1.123164163995623 -0.2449134958901003 C -1.124344356678407 -0.24635595361350365 -1.1262548566281452 -0.24855696253131182 -1.126795526096498 -0.25036053904141303 C -1.127925283194548 -0.25412605979768155 -1.1207442646400674 -0.26079566152295564 -1.1170110226580288 -0.25913633078519477 C -1.1155241816200594 -0.2584756246251742 -1.1147434387683715 -0.2553930016862093 -1.1139848875739662 -0.2540927723117571 C -1.1107751669614705 -0.24859025001723634 -1.1074242267117187 -0.24316136367642815 -1.1044021264744346 -0.23754990051888147 C -1.0981077654995846 -0.22585994068914766 -1.0907683792090381 -0.214418123936307 -1.0848331195974967 -0.20254760471322392 C -1.0830658567084042 -0.19901408764673373 -1.0809041875466887 -0.1954382046890663 -1.0794869476156528 -0.1917543895800673 C -1.0781604917371386 -0.18830661300762558 -1.0771023531694115 -0.1841416424202607 -1.0750486161590276 -0.18106204561637967 C -1.0702713575729872 -0.18310973035659528 -1.0660519165541094 -0.18796465974312654 -1.0620362352975583 -0.1912500337327236 C -1.052039902403205 -0.19942866815325033 -1.041867044962281 -0.20738538600094536 -1.0318757556264013 -0.21555998557469336 C -1.0275614957082224 -0.21908946779440502 -1.0189259148900025 -0.22325443838176962 -1.0179555342397135 -0.229076722283506 C -1.023225044132761 -0.23434623217655393 -1.0312624589160313 -0.23657145017503456 -1.0370201852693075 -0.2412821337892253 C -1.0416774071636798 -0.24509203786006006 -1.0473544365813814 -0.24762894777219924 -1.0520499895201518 -0.2514701219055692 C -1.0592531997319155 -0.2573640243376287 -1.0674883220073443 -0.26243481802682284 -1.0752503584979651 -0.2676095090205698 C -1.0800498087412884 -0.27080914251611876 -1.0867416021238454 -0.2732502248172626 -1.0907845185961529 -0.2772931412895702 C -1.0920615476016275 -0.28495228918733273 -1.091188003274028 -0.29333165723510196 -1.091188003274028 -0.30109873728419606 C -1.091188003274028 -0.3220406007776039 -1.0900128541497172 -0.34320438084384297 -1.0951219788833095 -0.3636388623548229 C -1.0991447211217231 -0.37973084002017315 -1.1078468769117928 -0.39453469285140746 -1.1182214766916538 -0.40721520756532437 C -1.1236392672038207 -0.41383739984094803 -1.1320065307112537 -0.4193711921980038 -1.1351678331624044 -0.42759118379801253 C -1.1371418819489079 -0.43272350890058275 -1.1363117122241801 -0.43795771388431637 -1.136580029534967 -0.44332708623513806 C -1.136899791142183 -0.44971424868589943 -1.137067237283501 -0.4561064546951344 -1.137386998890717 -0.46249260843420115 C -1.138303917821188 -0.480839056737178 -1.1380002956010868 -0.4996444688612377 -1.1370843853823107 -0.5179717516420154 C -1.1363903917363656 -0.5318516245609158 -1.137096489922647 -0.5452190719389151 -1.134159121467717 -0.5589254464463292 C -1.126759212475489 -0.5934576826022622 -1.0979493977635186 -0.6225489278770506 -1.0639527875174648 -0.6310483326164879 C -1.0481200487576494 -0.6350065173064416 -1.0317577363581227 -0.6345788235478942 -1.015534626172463 -0.6345788235478942 C -0.9959020704587599 -0.6345788235478942 -0.9757056449077262 -0.635793312428298 -0.9566258632027109 -0.6303422344302065 C -0.9406710703278387 -0.6257838662819136 -0.9274065115426975 -0.6174166027744805 -0.9132512603311472 -0.6091592888417684 C -0.9061892697566398 -0.6050397102806646 -0.8974508003455618 -0.6002180683800581 -0.8916648300648343 -0.5944320980993304 C -0.8962494247171889 -0.5852629087946207 -0.9063879859604935 -0.5787657967691383 -0.9146634567037099 -0.5732491525108921 C -0.9184219164781156 -0.5707435126612884 -0.9254072449638269 -0.5678989456822695 -0.9267679970399603 -0.5633637779029544 C -0.9187759742829511 -0.5625648782407618 -0.9112066017260159 -0.5623954146760544 -0.9035676280621472 -0.5595306734631419 C -0.8911261780198708 -0.5548653818752121 -0.878720032886909 -0.5447873433335888 -0.8749202159330212 -0.5314884883508284 C -0.8728049475092614 -0.5240865619352112 -0.8733062772215212 -0.5165292939186124 -0.8733062772215212 -0.5088933463898276 C -0.8733062772215212 -0.4981334187425957 -0.8733062772215212 -0.4873744998070585 -0.8733062772215212 -0.4766145721598266 C -0.8733062772215212 -0.4668633562072822 -0.8733062772215212 -0.45711314896643257 -0.8733062772215212 -0.4473619330138882 C -0.8733062772215212 -0.44106958946242725 -0.8728987576968674 -0.434091321958579 -0.875424571780365 -0.42819641081482507 C -0.8793565299662568 -0.41902217795164187 -0.8874504326044296 -0.41180585448784734 -0.893682253454209 -0.4041890724812619 C -0.9029452529465251 -0.39286729242008894 -0.9091992654535878 -0.3784477587445307 -0.9122425486364598 -0.3642440893716356 C -0.9141106826950212 -0.35552680290614574 -0.9140188899308046 -0.34627288181908245 -0.9144617143647722 -0.33741235829294725 C -0.9154906002933536 -0.31682556131606926 -0.9145625855342412 -0.2963951146518679 -0.9145625855342412 -0.275780073747539 C -0.9292272361516085 -0.26600364000262744 -0.9427742342112618 -0.2547867659577019 -0.9574328325584616 -0.24501436705956936 C -0.9616542910007285 -0.2422000614313909 -0.9662197201308844 -0.23944829592828343 -0.9701425999115241 -0.23623857531578762 C -0.9713591062153171 -0.2352429768731309 -0.9729881756022375 -0.23441986813026588 -0.9734713485039929 -0.23280895555385006 C -0.97393333846016 -0.23127067021945164 -0.9719865248894132 -0.2295326599695049 -0.9708486980978056 -0.2287741087750998 C -0.9668027554904137 -0.2260768137035054 -0.962693264046257 -0.22350560759374682 -0.9586432865920861 -0.22080528638706842 C -0.9470471369499586 -0.21307451995898324 -0.936488951641664 -0.20393760942850364 -0.9253558006673976 -0.19558749401988013 C -0.9206067860088087 -0.19202573302593834 -0.9159092156466491 -0.18717988204465957 -0.9104268675860223 -0.18489515005619211 C -0.9081814753536479 -0.19387571027399525 -0.9043645103009503 -0.20176080959136783 -0.9002388794696784 -0.2100120712539118 C -0.8951801903208202 -0.2201304582633225 -0.8906873884326818 -0.2305897898255373 -0.8853099463883026 -0.240576035602944 C -0.8827115050627876 -0.24540171235032932 -0.8805004090280328 -0.25049772383189056 -0.8780472221865526 -0.2554040975148507 C -0.8769789965018785 -0.257540548884199 -0.876125626408173 -0.26009359818345307 -0.87421411774674 -0.2616581100219136 C -0.8728069649326509 -0.2628100587772465 -0.8712464879409694 -0.2618336258567891 -0.8699775286290525 -0.2610528830051009 C -0.8669362628695694 -0.2591807140997608 -0.8627692748588153 -0.25700996653279323 -0.8613026080547393 -0.2535884164644132 C -0.8550395171424247 -0.2509042346448497 -0.848513152477796 -0.24569222131839907 -0.8432466687198326 -0.24138300495869391 C -0.8329285567948739 -0.23294008807415956 -0.8225943054828001 -0.22557245785616176 -0.8130861890486756 -0.216064341422037 C -0.8119786236079087 -0.20831440947175273 -0.8127835755402689 -0.1999824508736338 -0.8127835755402689 -0.19215787425794234 C -0.8127835755402689 -0.1770271988376294 -0.8127835755402689 -0.16189652341731642 -0.8127835755402689 -0.14676584799700343 C -0.8159206689107475 -0.14467478865391614 -0.8198243831691882 -0.14369936444515347 -0.8231733059955509 -0.14202490303197207 C -0.8273725727805352 -0.13992476528363262 -0.8320640908725269 -0.13756841476484272 -0.836589171534895 -0.13627524637225308 C -0.8403234222286281 -0.13520802939927362 -0.8480894935660275 -0.13324810257649577 -0.850509392921583 -0.1300212338651906 C -0.8513980679246026 -0.1288359976239326 -0.8500373158484689 -0.12628294832467857 -0.8492989388879576 -0.12538116006962785 C -0.846340387487439 -0.12176492864417299 -0.8425173701645733 -0.11859959134624365 -0.8392118219410822 -0.11529404312275249 C -0.8299266307914835 -0.1060088519731538 -0.8193724803299685 -0.0970978928622841 -0.8110687656593005 -0.0869492445020329 C -0.8074010899374168 -0.08246652973084145 -0.8010643630713896 -0.07804131152624716 -0.7997711946787998 -0.07222205375959478 C -0.8067898106504358 -0.065203437787959 -0.8102991186362536 -0.05336317991571671 -0.8143975142517692 -0.04448248215568773 C -0.82180448422586 -0.028434887804903886 -0.830006319015364 -0.012665697881853566 -0.8370935273822385 0.0035321945114388242 C -0.8471645049419987 0.02655200409590297 -0.8583369956723578 0.04934787968414667 -0.8695740439511772 0.07182197624178488 C -0.885552037195028 0.10377897144118065 -0.8992826207831144 0.1369131331882767 -0.914259972025835 0.16936439711806928 C -0.925322513181473 0.19333239569553973 -0.9358453935804533 0.21753744152126153 -0.945328292222211 0.24219338147450897 C -0.9498251289571281 0.25388435001593757 -0.9549988112391805 0.2654472121721406 -0.9584415442531489 0.2774982907885726 C -0.960978454165288 0.2863759624135177 -0.9640762077796735 0.2954826115931568 -0.9673182071663992 0.30412827952832355 C -0.9680838193426671 0.3061709207100658 -0.9689442504182352 0.3079311226172955 -0.9688312747084304 0.3101805496964487 C -0.9688111004745368 0.3105840343743238 -0.9688030307809793 0.31258935322336245 -0.9681251765221489 0.31270232893316763 C -0.9659665334955179 0.3130624390081709 -0.9640933558784831 0.3107888028483453 -0.9627790045403054 0.3094744515101674 C -0.9583083943094501 0.3050038412793121 -0.955945991520492 0.29862273109871895 -0.9526918875934302 0.2933350643951669 C -0.9438727212467767 0.2790042973487412 -0.9346218262947976 0.2647643143548375 -0.9261627700231478 0.2502630750320092 C -0.9220815225064422 0.24326665071765652 -0.9183392021191511 0.23600594393929553 -0.9138564873479601 0.22928187178250858 C -0.9088179724329956 0.2217235950542149 -0.9050100857855505 0.2133301050427201 -0.9002388794696784 0.20557714695735163 C -0.8898360357623658 0.18867315637777793 -0.8798205373458133 0.17136164627355055 -0.8703810133069273 0.1538302370198812 C -0.8469940326655967 0.11039813758172012 -0.8211629435880384 0.06818960542921493 -0.797753771289425 0.024715140099877075 C -0.7869020508779767 0.004562089151714854 -0.776037217214497 -0.01604589077075158 -0.7640628006868613 -0.03550494807296878 C -0.7599563353777881 -0.04217858464502133 -0.7560919608754403 -0.04905396355601155 -0.7523617450284857 -0.055981795475125606 C -0.75070342300242 -0.05906240099070148 -0.748874628699951 -0.06128156671901375 -0.7484277694192044 -0.06485845838837578 C -0.7570784809128449 -0.07350916988201617 -0.7658391419812061 -0.08176345767964421 -0.775259500497893 -0.08947102373875171 C -0.780459409284007 -0.09372576966694357 -0.7861989788267792 -0.09732081814681015 -0.7913988876128938 -0.10157556407500223 C -0.7967965038911665 -0.10599170387434398 -0.8029456103819815 -0.10946368952745855 -0.8083452440836438 -0.11388184675019009 C -0.8110405217318489 -0.11608689051477683 -0.8138437315313856 -0.11733063203432659 -0.8157088394548633 -0.120438472765659 C -0.8046341937588883 -0.12518446128916372 -0.7925689931787311 -0.12779500715501502 -0.7824213535301744 -0.13456043649128435 C -0.7824213535301744 -0.15545589924673664 -0.7815135130049556 -0.17636346654252527 -0.7815135130049556 -0.19720143273138024 C -0.7815135130049556 -0.2045609932558205 -0.7819432241868927 -0.2120698431110744 -0.7812108994965494 -0.2193930900145058 C -0.7809476257442359 -0.22202582753764027 -0.7813642236741418 -0.22478566273430545 -0.7803030589713307 -0.2272610412330685 C -0.7712085143320281 -0.22612422315315567 -0.7623792608684276 -0.22004169163419002 -0.7538748125705174 -0.21677043960831832 C -0.7337832930357308 -0.20904269931531716 -0.7144664640824651 -0.19928543109260455 -0.6943608225839528 -0.19155264724113008 C -0.6881300104458679 -0.18915594825455223 -0.6818719630920267 -0.18677034509661644 -0.6759013985711712 -0.18378556719203593 C -0.6716799401289033 -0.18167534232674953 -0.6664154737943297 -0.180037194534577 -0.6632925023875772 -0.17622022948187943 C -0.6570626989611863 -0.16860647361037795 -0.6544733360409234 -0.15724434508141755 -0.6509862197123887 -0.1481780443695661 C -0.6424918585314255 -0.1260923018143827 -0.6356911242858417 -0.10335493150443076 -0.6273823660567007 -0.08119958784231396 C -0.6131161565587347 -0.04315602627717374 -0.6012950642086918 -0.004234885537655275 -0.587033898269199 0.0337935453520648 C -0.5807980425726409 0.05042114892729399 -0.5761176203092913 0.06761161362815904 -0.5698857994595112 0.0842291300864414 C -0.56609808704596 0.09433036899704228 -0.5619573255392676 0.10451533097830257 -0.5589917131568862 0.11489396560494258 C -0.5563347665530791 0.12419529614165614 -0.5522686497117939 0.13324646617808744 -0.5492072097184169 0.1424317948699121 C -0.5412847880683409 0.166198051108445 -0.5315759380069733 0.1896667373970451 -0.5246955155375101 0.21374771168432083 C -0.522164657895539 0.22260621778706657 -0.5181570463325453 0.23108645700430452 -0.5156171102853222 0.23997421574619637 C -0.5141867571022554 0.24497944317523612 -0.5120230705171505 0.25039824239909725 -0.5122883616928533 0.2557101181833219 C -0.5127009247759804 0.26396844082772863 -0.516563281854939 0.27322942289665497 -0.5194502147251343 0.28092791055051014 C -0.52390569428057 0.2928085168905401 -0.527258651953711 0.3056363035118813 -0.5307477857056351 0.3178467585760738 C -0.5365337559863625 0.33809866327031546 -0.5431186259292831 0.3581195729864739 -0.5489045962100105 0.37836946025732565 C -0.5539350414314177 0.3959765228880968 -0.558404642950578 0.4140576800153707 -0.5648422409860736 0.4312259530589525 C -0.5667083576212459 0.43620293656054077 -0.5678189491970964 0.44164493615337996 -0.5692805724426988 0.4467601131571407 C -0.5741012056316102 0.4636338423858736 -0.5795885972507109 0.4803179338160054 -0.5844112478630119 0.4971956978915174 C -0.5927472413079095 0.52636965752527 -0.6031087278357399 0.5549716776281349 -0.6114447212806375 0.5841466459735823 C -0.6150105171213581 0.5966264270602569 -0.6189757627931747 0.6089922237254314 -0.6225405499222006 0.621468978677021 C -0.6247637504972916 0.6292501806898408 -0.6266560936365255 0.6389398652290094 -0.6319215686827945 0.6453754458411157 C -0.6345300971252565 0.6485639835080231 -0.639390070070261 0.6503342725321993 -0.6433200108327638 0.6509233601618972 C -0.6518365636710105 0.6522003891673717 -0.6605276236324388 0.6527390412123347 -0.6691430302167646 0.6527390412123347 C -0.673809330516389 0.6480727409127102 -0.6767023156567528 0.6400968575428158 -0.68003711651939 0.6343804883690215 C -0.6860450033729493 0.6240805332545675 -0.693426755554672 0.6145683819736637 -0.6994043810573906 0.6043208798673328 C -0.7021107545342372 0.5996818147834652 -0.7083990632389191 0.5890893332775514 -0.7144341853082349 0.5890893332775514 C -0.716277101574429 0.5983059320319116 -0.710989434870877 0.6096700779842613 -0.7084827863095781 0.6184428435929584 C -0.7051570638521933 0.6300833765496529 -0.7019433083929192 0.641901442764612 -0.6994043810573906 0.653747752907022 C -0.697503968224599 0.6626183635501043 -0.6946634360923591 0.6712953015478066 -0.6937555955671404 0.680377741646773 C -0.6981485349975047 0.6833070404081459 -0.7044398698372707 0.6837337254549983 -0.7094914980042658 0.6848160731033982 C -0.7172242818557405 0.6864733864177698 -0.7249479873019627 0.6882003008390752 -0.732691866982079 0.6898596315768358 C -0.7492902179181624 0.6934163490123039 -0.7654124569343531 0.696363804584181 -0.782522224699643 0.6955084170670859 C -0.7923460678942053 0.6950171744717731 -0.8020095259293116 0.6917277656353972 -0.8113713791677063 0.6890526622210856 C -0.8191616595857784 0.6868264355109107 -0.8278507021238165 0.6849229965430353 -0.8342691346371136 0.6796716434604918 C -0.8431397452801959 0.6724139628172149 -0.8474277786943122 0.6594066255142194 -0.8524259451414895 0.649410292619866 C -0.8610726217883505 0.6321169393261427 -0.8673911918438736 0.6136282626742152 -0.8760297987971775 0.5963520574793019 C -0.8813497442749593 0.5857121665237378 -0.8864760171073615 0.5745134492893166 -0.8906561183701466 0.5633671850630194 C -0.8942713410839069 0.5537259186851958 -0.8997496542977547 0.5447665414129811 -0.9033658857232095 0.5351232576117683 C -0.9048688661482938 0.5311166547604697 -0.9065382840030018 0.5265814869811541 -0.9089138000439911 0.5230187172755182 C -0.9090973855724241 0.5227423302711737 -0.9113165513007365 0.5200157825604333 -0.9114355792807097 0.5201943245303929 C -0.9118844559848458 0.5208681439424442 -0.9113367255346306 0.523257781947159 -0.9112338369417721 0.5240274289702057 C -0.9107879863727204 0.5273692908147055 -0.9090489674110789 0.5312054213896019 -0.9078042171798347 0.5343162882560185 C -0.9027082056982733 0.5470573256716166 -0.8991242530470485 0.5605579229933143 -0.8942874804710216 0.5734543020098947 C -0.8816705145938701 0.6071008892978919 -0.8703336038572771 0.6412488062981493 -0.8561581784118332 0.6743254714786481 C -0.8531713830838633 0.6812946605772442 -0.8505104016332775 0.6885321669866272 -0.8466762884817703 0.6951049323892112 C -0.8387225967691593 0.7087396883663025 -0.826037038496769 0.7189811382024652 -0.810362667473019 0.7223401481457746 C -0.7978042068741593 0.7250313909472007 -0.7855806385579361 0.7216421196530506 -0.7734438194474554 0.7186079148754304 C -0.7563471649341962 0.7143340034250393 -0.73954808037087 0.7088224027252669 -0.7226047500352036 0.7039815953024614 C -0.7125892516186513 0.7011198802246329 -0.7020008049595161 0.6962145152533675 -0.691435558669359 0.6962145152533675 C -0.6894806754050546 0.6991458314381295 -0.6885556867810259 0.7029355612750704 -0.68729984072114 0.7062007610307738 C -0.6843977771755243 0.7137449157953418 -0.681934503217097 0.7214877867637636 -0.6802388588583272 0.7294011300085869 C -0.6762887438619314 0.7478323100939178 -0.6708901188719633 0.7659911380216825 -0.6663186374716398 0.784275046199589 C -0.6576709521130832 0.8188637702104246 -0.6486732437964703 0.8534978862475208 -0.6388816793761386 0.8877688660745299 C -0.6315473366440657 0.9134405787043277 -0.6258400458755233 0.9395672203084292 -0.6185057031434504 0.9652379242265322 C -0.6108677381912763 0.9919697928474464 -0.6049617312188811 1.0191989563338417 -0.5973227575550124 1.0459348598015352 C -0.5873395379126898 1.0808756241938164 -0.5782994637049004 1.1161785160844904 -0.5694823147816366 1.1514461030658505 C -0.5661323832435787 1.16484582921808 -0.5619785084848556 1.178111396714916 -0.5581847438011358 1.1913910861754768 C -0.5500000571104413 1.2200364808812134 -0.5439760308697676 1.249291137450541 -0.5357913441790727 1.2779385495796673 C -0.5258091332484451 1.3128783052602544 -0.5167670416172658 1.3481842232860126 -0.5079509014056973 1.383449792843983 C -0.5023354034013714 1.405911784861285 -0.49595429322077833 1.428364698473335 -0.48959234856238365 1.4506299917101724 C -0.4826392988509025 1.4749671787678986 -0.4771781337358645 1.499727016025699 -0.4702250840243831 1.5240642030834253 C -0.46630523037882754 1.5377836908428701 -0.46305011774007077 1.5516978599593902 -0.45912925538282057 1.565421382565614 C -0.4560365453269082 1.5762458677613056 -0.45122297311985937 1.5879802109056058 -0.45065607714744504 1.5993140955071148 C -0.44995905736641606 1.6132645782446438 -0.4553425516809637 1.6257352809260657 -0.4614492922806015 1.637947753413648 C -0.46483049388119446 1.644710156614833 -0.470527697532789 1.652806076676395 -0.470527697532789 1.6605428953746482 C -0.4658624059448595 1.6675403284006958 -0.45776547717160265 1.6713219885440793 -0.45247175819788255 1.677791865353805 C -0.443860386460335 1.6883177718878692 -0.43476483310933767 1.6984250630686386 -0.4261443829665379 1.7089610567196498 C -0.4188392928736111 1.7178891639293288 -0.4138310393094873 1.7284140617516992 -0.4083910571400373 1.7385163093739946 C -0.40270192318199993 1.749081555664152 -0.3979226471725703 1.7648305713533081 -0.40092659059934976 1.7768473537721206 C -0.40474960792221526 1.7921404317752785 -0.4212672619227238 1.7899606058030586 -0.4335079783377569 1.7899606058030586 C -0.46374512009771074 1.7899606058030586 -0.494036732289177 1.7899606058030586 -0.5242920308596348 1.7899606058030586 C -0.5325866671250503 1.7899606058030586 -0.5412605789876688 1.790684860799844 -0.5495098232268232 1.7898597346335898 C -0.5532713091363128 1.7894834851714716 -0.5582825888355207 1.788204438742608 -0.5608073942073233 1.7851187896685587 C -0.5658660833561815 1.7789363956918183 -0.5643378851387297 1.7670991639546605 -0.5643378851387297 1.7596992549624324 C -0.5643378851387297 1.744912550230008 -0.5644387563081987 1.730110714822163 -0.5644387563081987 1.7153159403961813 C -0.5644387563081987 1.709181964580786 -0.5628439831188976 1.7003890247381954 -0.5651448544944799 1.694637350655087 C -0.5705787843937618 1.6935509681599084 -0.5766966208220417 1.694372059479384 -0.5821920821346995 1.6947382218245557 C -0.5933928167925097 1.6954846684786244 -0.6048548077792444 1.6951417065024303 -0.6160847950762004 1.6951417065024303 C -0.6237237687400691 1.6951417065024303 -0.6335546729164938 1.6953182310490011 -0.638679937037201 1.688484209317493 C -0.6422901161924874 1.6836706371104442 -0.6432564619959984 1.6777454646158492 -0.644126980188514 1.6719413375246175 C -0.644987411264082 1.666207820252013 -0.6462906667736185 1.660540877951259 -0.6471531152725765 1.6547932387149293 C -0.6510568295310171 1.628771503127075 -0.6583740241642804 1.6031895658381048 -0.6622837906928895 1.5771224382239892 C -0.6652362898232396 1.557438438213857 -0.6700074961391116 1.5377150984476313 -0.6741865886902022 1.5182136752542372 C -0.6800673778702303 1.490769656176874 -0.6844492214719531 1.4629251785567194 -0.6903259758052026 1.4354993162898597 C -0.6980708641970134 1.3993581849809007 -0.7037610068667457 1.3627147152479862 -0.711508921393641 1.3265584532636066 C -0.7136968170594181 1.3163482734899792 -0.7146228143951411 1.3058334627845567 -0.7171577068838907 1.2956918754061677 C -0.7199901693225735 1.2843640430748269 -0.7268705917920377 1.2750062246832106 -0.732691866982079 1.2650270398876668 C -0.7390780207211458 1.2540805005769178 -0.7441336837349201 1.2422937044244944 -0.7501425793001734 1.2311343269461656 C -0.7542520707443305 1.2235024142641602 -0.7587751339833092 1.2159865034270432 -0.7626506043142991 1.2082365714767587 C -0.7900179613028663 1.153500848787929 -0.8190043005614069 1.0995640257612922 -0.846373674973364 1.0448252769373787 C -0.875169367721609 0.9872338914408888 -0.9043080224460475 0.9299652936866983 -0.9331228807164916 0.8723355771458107 C -0.9427722167878728 0.8530358962913541 -0.9524245789943376 0.8335243859810132 -0.9614676793372114 0.8139311700234025 C -0.9649305865850739 0.8064283724383167 -0.9690552087046512 0.7990778903191286 -0.9719582809619616 0.7913360280624019 C -0.9725867083477522 0.7896605579375257 -0.9731919353645646 0.7878832079314865 -0.9744800601986806 0.7865950830973704 C -0.9745890010617068 0.786486142234344 -0.9757994550953317 0.7852918275878339 -0.9759931277407119 0.7854855002332136 C -0.9766296248200595 0.7861219973125618 -0.976699225926993 0.7884450603454273 -0.976699225926993 0.7893186046730268 C -0.976699225926993 0.7930155330340561 -0.9763794643197771 0.7967235572237276 -0.9761948700796496 0.8004144333145894 C -0.9755099548389565 0.8141218165336982 -0.9761948700796496 0.8280450640554701 -0.9761948700796496 0.8417716127967784 C -0.9761948700796496 0.8972507560045927 -0.9761948700796496 0.9527298992124068 -0.9761948700796496 1.008209042420221 C -0.9761948700796496 1.1460666435980822 -0.9761948700796496 1.2839232360642483 -0.9761948700796496 1.421780837242109 C -0.9761948700796496 1.4678456742034052 -0.9761948700796496 1.5139095024530058 -0.9761948700796496 1.559974339414301 C -0.9761948700796496 1.5740963031399269 -0.9761948700796496 1.5882182668655522 -0.9761948700796496 1.6023402305911776 C -0.9761948700796496 1.612016801878315 -0.975747002087208 1.6221361975994202 -0.9781114222995556 1.631592869737116 C -0.9802125687595897 1.639996446865558 -0.9833093136622806 1.6488902578776181 -0.9876941833990874 1.6564071774264293 C -0.9910360452435869 1.6621366598522544 -0.9952413642987396 1.6677229052174343 -0.9975795580070251 1.6739587609139925 C -1.000149755405089 1.6808109394560051 -0.9983713966873548 1.6903947092672311 -0.9988908832101188 1.6976634857391493 C -1.0002354958991375 1.716488063385408 -0.9987900120406501 1.7357827006813915 -0.9987900120406501 1.754655696488995 C -0.9987900120406501 1.761048911209925 -0.9989917543795873 1.76744111721916 -0.9989917543795873 1.7738212186880582 C -0.9989917543795873 1.7770733051917311 -0.9989100487323178 1.7815227324769976 -1.0011100489384317 1.7842109491433398 C -1.00771610182694 1.7922846775476189 -1.0214688770723097 1.7896579922946523 -1.030665301592776 1.7896579922946523 C -1.046800653860998 1.7896579922946523 -1.0629420583993876 1.7897588634641215 -1.0790834629377777 1.7897588634641215 C -1.0880650318672753 1.7897588634641215 -1.0973845192144935 1.7890668872415656 -1.106318678694341 1.7899606058030586 C -1.1332331241319937 1.7899606058030586 -1.1600779684627132 1.7909693174977463 -1.1870156142693435 1.7909693174977463 C -1.201292919595951 1.7909693174977463 -1.2161482167236144 1.7926054478665292 -1.22938150544622 1.7869344707189962 C -1.2305576632822257 1.784190774909446 -1.2322180027316811 1.7816609259791694 -1.2334163522249701 1.778864777161496 C -1.2276102077103486 1.765315761678453 -1.2115575698010912 1.7607049405220359 -1.2008349644865628 1.7519321749133385 C -1.1868996124244546 1.7405307066282854 -1.1698937419637174 1.7325770149156745 -1.1559472940729676 1.7211664682253693 C -1.1512820024850379 1.717349503172671 -1.1454889712224474 1.7149023686013596 -1.1408166186526547 1.711079351278494 C -1.135218268747139 1.7064987914729177 -1.1282692538824364 1.7035644491530717 -1.122659808148279 1.6989748109422433 C -1.1152538468858832 1.6929154797922554 -1.1065395865554777 1.6880595416940296 -1.098551598645247 1.6827345526577737 C -1.0953862613473175 1.6806243277924877 -1.090810745100215 1.6790043368108196 -1.0893723222235905 1.6751692149476174 C -1.0932296357440756 1.6713119014271327 -1.097970580709107 1.6683594022967823 -1.101476862559841 1.6640733863060544 C -1.107759118994355 1.6563950728860934 -1.1140070792312495 1.6488751272021975 -1.119028446047404 1.6402677903114289 C -1.1281179471282334 1.6246862207635901 -1.1302513723624976 1.60591510483715 -1.1339573791287796 1.5886217515434273 C -1.136993601329789 1.5744533870798456 -1.140283010166165 1.5601700294830705 -1.1424305573641547 1.5458523756886757 C -1.145183331578957 1.5275039099623093 -1.1492383525916008 1.5089062924473557 -1.1531229013278428 1.4907767171587367 C -1.1545734287448033 1.4840082616873835 -1.156604974097904 1.4770431074355659 -1.157460361614999 1.4701989985871111 C -1.158286496492948 1.4635889108518239 -1.1600023150856116 1.4571260950239604 -1.1613943372242803 1.4506299917101724 C -1.1641662769612817 1.4376952816491948 -1.1663632510323112 1.424677857229252 -1.1689596749344369 1.4116937202952338 C -1.1698533934959299 1.4072251274877683 -1.1706512844464279 1.4022320045990648 -1.1722884235269058 1.3979752412474835 C -1.17266164685394 1.3970058693088885 -1.173729872538614 1.3942379644186667 -1.1749110739330932 1.3940412656382022 C -1.1764180892049565 1.3937900964262253 -1.1781510558964297 1.3954605229926274 -1.1793494053897187 1.396159560197046 C -1.1818540365276275 1.3976201747309536 -1.1847137341820668 1.3991544252185735 -1.1874190989472186 1.4001944069757961 C -1.193445142611282 1.4025124264501883 -1.2009640795834828 1.4017337010218895 -1.2071898481630943 1.4007996339926083 C -1.2218736643026606 1.3985966076514114 -1.2359714189476134 1.3931525906351827 -1.250160966356783 1.3890985783342331 C -1.2639752730155291 1.3851514894729209 -1.2777098914503944 1.3809391094359058 -1.2915181458389717 1.3769940379979828 C -1.3382830287163805 1.3636326428901517 -1.3849672146582142 1.3500059566066178 -1.4317290714005388 1.3366455702104818 C -1.4521615354881297 1.33080714692163 -1.472627287061645 1.3251331436390128 -1.493058742437541 1.3192957290618565 C -1.5013594309731246 1.3169242478676457 -1.5094896472323063 1.3138264942532603 -1.5178730501268543 1.3117303913516998 C -1.5336765362475238 1.3077792676436086 -1.551828303193426 1.3045887125533122 -1.566291211471856 1.2968014582703238 C -1.571116888219241 1.2942030169448087 -1.573932202559114 1.2895891696533082 -1.578395751808106 1.2866134701539798 C -1.5799854814389338 1.2813157163334812 -1.5832789251220882 1.2772213555647443 -1.5840445372983563 1.271482794733667 C -1.5865501771479602 1.2526904958616383 -1.5810224370610726 1.2325757759578746 -1.5786983653165123 1.2139862281364775 C -1.5748783741287307 1.1834252899225293 -1.5719702583129467 1.1526585745228655 -1.567400794336012 1.1221934639199125 C -1.5643383456309408 1.1017801653545205 -1.5602389413037305 1.080324867608517 -1.5602389413037305 1.0596533388492855 M -1.374434247142287 0.8486308523206535 C -1.3819299837455101 0.8511294311883945 -1.3886944043700848 0.8591779418003062 -1.3935997693413502 0.8651737241135288 C -1.4017763863384873 0.8751670308727985 -1.4085761118723759 0.8850029786076968 -1.4131687762182885 0.8972507560045927 C -1.421211234560032 0.9186969753453441 -1.4205444761298436 0.9433438368933397 -1.4233567643346323 0.9658431512433446 C -1.4250635045220437 0.9795000988777195 -1.4278959669607263 0.9932044559617442 -1.4278959669607263 1.0069985883865962 C -1.4259239355976123 1.008312939724774 -1.4233002764797298 1.00855099568472 -1.4210367274368512 1.00911688294544 C -1.4139606148986181 1.010886163257922 -1.406051306500573 1.0133534720631272 -1.3987441989842568 1.0133534720631272 C -1.3973622639625347 1.0057548468670463 -1.3974500218799726 0.997743658587838 -1.3964241620864752 0.9900522319158457 C -1.3953478667082437 0.981979512223261 -1.3941051339003885 0.9739209144944024 -1.3930954134940063 0.9658431512433446 C -1.392509351999393 0.9611516331513531 -1.3919515344322309 0.9564207753032686 -1.3914814747825066 0.9517211875177195 C -1.3912202184535825 0.9491126590752575 -1.3914845009175905 0.946077445585943 -1.3902710207488813 0.9436514939602189 C -1.3894922953205826 0.9420940431036219 -1.3850317722066743 0.9427809757677038 -1.3837143947334125 0.9429453957739379 C -1.377550157567177 0.9437160515086788 -1.3703600606074442 0.9457092658173817 -1.3645488725343493 0.9478880830779065 C -1.3391434597919494 0.9574153650342304 -1.3109973773750832 0.959253237741951 -1.2859702315181905 0.9699788691915635 C -1.2853397867090108 0.9756558986092653 -1.28661782442618 0.981392442016953 -1.2871806855518155 0.9870260968317831 C -1.2884950368899935 1.0001696102135615 -1.2905850875213858 1.0132495747585746 -1.2922242440252532 1.0263658529245965 C -1.2928819240501896 1.031627293124087 -1.2944030612857784 1.0369734651059308 -1.2937373115672846 1.0423034977006602 C -1.291217549753955 1.0439830026723147 -1.287753633794398 1.044505515330163 -1.2848606486540342 1.0452287616152538 C -1.278404893808034 1.0468427003267538 -1.2722093865792634 1.0487592525466596 -1.2654933841160336 1.0487592525466596 C -1.2641961808766653 1.0435724570125764 -1.2641094316709225 1.0377451295523668 -1.2635768318961276 1.032418123092722 C -1.2627537231532624 1.0241900617991555 -1.2617450114585749 1.0159519133886423 -1.2611559238288772 1.0077046865728772 C -1.2605426271185072 0.9991144977809184 -1.2586603710962203 0.9905848316906402 -1.2582306599142834 0.9819825383583455 C -1.2568941169188226 0.9552516784491255 -1.2578362536416605 0.9264438811605443 -1.2708395560978776 0.9022943144780303 C -1.2741985660411872 0.8960554326463878 -1.2766436831891097 0.8881178803208915 -1.281733642400503 0.8830279211094983 C -1.3027077846681407 0.884934386212458 -1.3238120507443933 0.881735761428604 -1.343870282793255 0.8755634545688108 C -1.3501081559132027 0.8736438762138207 -1.3582111369566277 0.8709828947632344 -1.3633384185007242 0.8667876628250292 C -1.3690991709890847 0.8620739530757543 -1.3704589143535235 0.8545933471479511 -1.374434247142287 0.8486308523206535 M -1.293535569228347 0.7826611074880888 C -1.294738962280109 0.7898844919337465 -1.2946471695158928 0.7989881149783012 -1.2937373115672846 0.8062649611437772 C -1.2851602360273566 0.8119833477409607 -1.2735650950969233 0.8126692716933482 -1.2643838012518773 0.8172599186158712 C -1.2594310268309616 0.8197363058263295 -1.2536470739736234 0.8219171405102438 -1.249353997001033 0.8254304833428404 C -1.2322270811369336 0.8394435062054394 -1.2217506014759087 0.857257354733621 -1.224035333464376 0.8801026571949045 C -1.2247061267413433 0.8868136160996604 -1.2252175435705501 0.893598210958129 -1.2260527568537511 0.9002768910886553 C -1.2262232291301534 0.9016436954349566 -1.226027539061384 0.9063664835894835 -1.2275658243957825 0.9071361306125308 C -1.2291404233511898 0.9079229257343865 -1.230217727441116 0.9028682714323076 -1.2303902171409073 0.9022943144780303 C -1.2319749032132616 0.8970137087563409 -1.2330865035008074 0.891507151615042 -1.2344250639196577 0.8861549273630295 C -1.237148585495314 0.8752618497720991 -1.2430152527116167 0.8660654252516325 -1.2508670645430642 0.8582136134201855 C -1.2547869181886202 0.8542937597746293 -1.258687606311977 0.8504404811009231 -1.264585543590815 0.8529683126078097 C -1.264585543590815 0.85942406745381 -1.260088706855898 0.863150248453986 -1.2569193347111896 0.8683007303670608 C -1.2513532635799038 0.8773448394216291 -1.2460413877956793 0.8875620801771188 -1.2430999844939703 0.8978559830214051 C -1.238446797446377 0.9141426420438302 -1.2359774712177818 0.9307621759255019 -1.235131162105939 0.9476863407389692 C -1.2346005797545332 0.9582949616319977 -1.235495307027721 0.9693272414367958 -1.234324192750189 0.9798642437995017 C -1.2276132338454329 0.9827400808410559 -1.219338771813911 0.9839384303343442 -1.212233406636532 0.985714771628689 C -1.1976555052249078 0.9893592469815952 -1.1831693965775 0.9935564963431903 -1.168455319087093 0.996709729100783 C -1.156374987831515 0.9992980833093515 -1.1410627443061583 1.001881393959446 -1.1312338575531231 1.0099238523011898 C -1.121311160612482 1.0180419640200356 -1.1152316552286 1.0296643401662249 -1.1145901145907788 1.0425052400395973 C -1.1140847500317403 1.0526034528151142 -1.1162403669232877 1.0627167962660513 -1.1169101514885602 1.072766590880223 C -1.1181226229455745 1.090952654023745 -1.1209046497995228 1.1091639349596338 -1.123164163995623 1.1272370223933503 C -1.1269861726067938 1.1578151087061075 -1.1300365167715287 1.1884678396842725 -1.1338565079593106 1.2190297866099153 C -1.1373446329995403 1.2469378130668352 -1.1408599932555261 1.2748549179290074 -1.1443471095840612 1.3027528572689806 C -1.146025605844021 1.316178809925272 -1.14625559211041 1.3304863766027197 -1.1490880545490925 1.3437065520732943 C -1.1515785637232758 1.355329936931179 -1.1538269820907343 1.3674596950597966 -1.1605873678685301 1.3775992650147955 C -1.163406717055182 1.3818277844389253 -1.1668847549784642 1.3853088484972917 -1.170472742476468 1.388896835995296 C -1.1710920914570062 1.3895161849758342 -1.1734998862722255 1.3922588720736897 -1.1718849388490307 1.392931682774046 C -1.1677078637213296 1.394671710447382 -1.162718775679405 1.3927975241186523 -1.1587716868180926 1.3913177440625462 C -1.1480652208906794 1.3873030715176897 -1.1389192319549475 1.3786876649333633 -1.1318390845699355 1.3700339273046387 C -1.1203458235206658 1.3559866082444203 -1.1200785149215737 1.3390029294409662 -1.1175153785053724 1.3219183794680434 C -1.1137064831462327 1.2965240625542847 -1.1107913063485855 1.2708160363034788 -1.1082352309142476 1.2452562906717914 C -1.1023725985447235 1.1866279495531624 -1.0930157888648018 1.1283708143381785 -1.0871531564952779 1.0697404557961607 C -1.0860425649194267 1.0586365574610404 -1.0845758981153513 1.0476567306643667 -1.0851357331059028 1.0364529698714717 C -1.085874110066414 1.021678369679384 -1.0933758989398052 1.0033016600255666 -1.1050073534912475 0.9937844651861892 C -1.1149350939903617 0.9856613099088708 -1.1274179012121202 0.9828106906596837 -1.1396061646190296 0.9797633726300331 C -1.153199563416639 0.9763650229306305 -1.1666416554600447 0.9722121568836016 -1.180358117084406 0.9692727710052825 C -1.1876954859515632 0.9677001894732645 -1.1956350557004487 0.9668034447766877 -1.202751516706469 0.964430954870782 C -1.204899063904459 0.9515466803945386 -1.202787830327478 0.9375518143424436 -1.2036593572316878 0.9244859717611561 C -1.2048264366624415 0.9069737280296858 -1.2077254740729733 0.8895593293326002 -1.208602044535657 0.8720329636374043 C -1.2101211643478562 0.8416576283752787 -1.2135427144162363 0.8113276851394139 -1.2160665110763447 0.7810471687765889 C -1.2238799918633942 0.7790932942239787 -1.233429465477001 0.7805428129292454 -1.2414860457824703 0.7805428129292454 C -1.2585534476565834 0.7805428129292454 -1.2766789880984235 0.7798518454183841 -1.293535569228347 0.7826611074880888 M -1.1957914060131252 0.5051645202795486 C -1.1971652713412895 0.5083702060452656 -1.196699246538344 0.5115415956133632 -1.196699246538344 0.5149490237180178 C -1.196699246538344 0.5209972590393644 -1.1965983753688751 0.5270505379191842 -1.1965983753688751 0.5331058342223934 C -1.1965983753688751 0.5360875859918898 -1.196363345544013 0.541616334790472 -1.198313185249844 0.5439999205250187 C -1.2007542675509877 0.5469836897179045 -1.2044975966499734 0.5480761244832509 -1.2081985598577818 0.5485391231511126 C -1.2160120406448316 0.5495155560715702 -1.224664769561861 0.5495831397551142 -1.2324076405302826 0.5480347673037688 C -1.236202413925697 0.5472762161093637 -1.2402352432810577 0.5455160142021341 -1.2421921439687518 0.5418816259661748 C -1.246629466713682 0.5336414601322722 -1.2454734831115701 0.52194746545576 -1.2459243772390955 0.5129316003286427 C -1.247411218277065 0.4831917534341704 -1.2469704112664863 0.4532663035878751 -1.2489505123231581 0.4235597441793274 C -1.2526524842426614 0.36802814796338923 -1.254441938789037 0.3123109487956288 -1.2572219482195957 0.2567188298780094 C -1.2583113568498585 0.2349326746961483 -1.258835886931096 0.21297907337296862 -1.258835886931096 0.19115256972331995 C -1.258835886931096 0.1858023628946971 -1.2587703206709413 0.18035834587846855 -1.2590376292700336 0.17501318260831944 C -1.2590668819091795 0.17443619951895828 -1.2589367581005646 0.1703398213268319 -1.2597437274563146 0.17007049530435037 C -1.2603893029409148 0.1698556397133819 -1.2602248829346807 0.17134449817474096 -1.260449825642596 0.17198704752425664 C -1.2610368958489042 0.17366352636082738 -1.2614313021215269 0.17530671771147333 -1.2618620220151586 0.17703060599769438 C -1.2636575288317025 0.18421465068725906 -1.2645512473931955 0.1915964028689825 -1.2660986111328463 0.19881877860294506 C -1.2680363462983408 0.2078628876575136 -1.2692064518641786 0.21701997242188698 -1.271142169606284 0.22605399435950846 C -1.2726148886805275 0.23292533842371999 -1.2747775665539376 0.2401315747705678 -1.2752778875545028 0.24713606877847782 C -1.2764600976606766 0.26368297541813224 -1.2757822434018466 0.28046793801773273 -1.2757822434018466 0.29706729766551077 C -1.2757822434018466 0.3615592798653581 -1.2769826103185247 0.42638413692445243 -1.2737648200124714 0.49073994304551694 C -1.2726239670857797 0.5135640625612118 -1.2738969612444757 0.5365162884621321 -1.2727561083177839 0.5593323382842693 C -1.272087332464206 0.5727088640675205 -1.272655237148315 0.5862841060546254 -1.272655237148315 0.5996808060717705 C -1.272655237148315 0.6252344994332898 -1.272655237148315 0.6507892015065034 -1.272655237148315 0.6763428948680231 C -1.272655237148315 0.6905233638719402 -1.273136392626681 0.7048833835575122 -1.2720500101315024 0.7190113995533053 C -1.2677307066548504 0.720862385513057 -1.262754731864957 0.7220567001595674 -1.2582306599142834 0.7233488598404619 C -1.24891218127876 0.7260108500027423 -1.2398337760265723 0.7297572052368119 -1.2307937018187827 0.7332342344484001 C -1.2036230436106792 0.7436844876053624 -1.173691541494216 0.7604936592856356 -1.1436410113977797 0.756737216934619 C -1.1190244112006251 0.7536596375541277 -1.1022697099518652 0.7367354727406602 -1.0873548988342154 0.7185070437059619 C -1.0742134028758263 0.7024443186797577 -1.0629723197502283 0.6837004379690738 -1.0542691552484644 0.6648435815485852 C -1.0431602133548705 0.6407747118016461 -1.032321606195453 0.6167754431616398 -1.0250165161025262 0.591207627836395 C -1.0180089959595318 0.5666828204034572 -1.0078099120145463 0.5430880451530212 -1.0008074354300254 0.5185803858188928 C -0.999205601258861 0.5129749749315141 -0.997205325968296 0.5072939106670341 -0.9951586499397751 0.5018357716870799 C -0.9946179804714225 0.5003933139636766 -0.9936627304965535 0.49631307515866563 -0.9945534229229627 0.4949765321632048 C -0.994605875931086 0.49489886136271377 -0.99607859500533 0.4959126166158746 -0.9961673616344625 0.49598524385789233 C -0.9974443906399368 0.4970302691735885 -0.9980677744672539 0.498565528372903 -0.9990926255490564 0.49981834829770466 C -1.0033171101264078 0.5049809347511155 -1.0061949645913515 0.5123082165013259 -1.0091797424959317 0.5182777723104867 C -1.0170396240209372 0.533997535360497 -1.0260635588416118 0.5492008380228276 -1.03439753486312 0.5646785102661133 C -1.0540099163429297 0.6011020808495852 -1.0749699366468422 0.6369537119021694 -1.0958280770695905 0.6727115327671481 C -1.1056801641916039 0.6896003926713014 -1.1167184962665693 0.7102103900171569 -1.134562606145592 0.7198183689090555 C -1.1589683855985569 0.7329598648674446 -1.1905864536685375 0.7280958570756614 -1.2135447318396257 0.7139678410798677 C -1.221695122332701 0.7089525265338817 -1.2331853572468865 0.7019954419756215 -1.2365433584785015 0.6924822819830235 C -1.2389481271586364 0.6856704519087985 -1.2386081913175266 0.6784127712655216 -1.2389642665457514 0.6712993363945855 C -1.2393011762517772 0.6645591248506831 -1.2394686223930953 0.657889523125409 -1.2394686223930953 0.6511251025008348 C -1.2394686223930953 0.6262785160372913 -1.2393677512236265 0.601418816321717 -1.2393677512236265 0.576581308263426 C -1.2264552328199314 0.5751469202335805 -1.2119913158298068 0.5770090020219735 -1.1991201546055938 0.5782961181443947 C -1.194416531973266 0.5787661777941194 -1.1872143304731968 0.5808703503892373 -1.1837877368463436 0.5766821794328948 C -1.171913182776482 0.5621688355697304 -1.1681910366230848 0.5411069353846548 -1.1715823253406246 0.5230187172755182 C -1.1726737513942762 0.5171994595088657 -1.173836795978251 0.5068369642693408 -1.1797528900675935 0.5036514527375174 C -1.1823543575281925 0.5022513609052911 -1.186239914976129 0.5027980826438118 -1.1890330376587186 0.5031470968901736 C -1.1913641703851416 0.5034386145699382 -1.19364486752683 0.5042445752139936 -1.1957914060131252 0.5051645202795486 M -0.9729669926566493 -0.15665122260494135 C -0.9741360895107921 -0.14729945648349324 -0.9715971621752635 -0.1378205926885145 -0.9704452134199303 -0.12860903749262798 C -0.9686759331074486 -0.11445176885768837 -0.9661612148525925 -0.10039234525713359 -0.9643929432518052 -0.08624314631575158 C -0.9590921632962222 -0.04383791538278248 -0.9531801040536585 -0.0014054492340566105 -0.9468413597642423 0.04085452721487759 C -0.9445293925600184 0.056267641909703014 -0.9432029366815043 0.07183609820551029 -0.940889960765586 0.08725526517050408 C -0.9403432390270653 0.09090074923510494 -0.940045669077132 0.09468947036035114 -0.9396795067319604 0.09835109381206697 C -0.9396018359314695 0.09912477568189226 -0.9396744631734874 0.10175347835824788 -0.9386707950372731 0.10218419825187941 C -0.938228979315 0.10237383605048078 -0.9371456229549058 0.09961400085381555 -0.9370568563257733 0.09935980550675438 C -0.9357636879331838 0.09566388585741925 -0.93561439860237 0.09113678777166156 -0.9348376905974605 0.08725526517050408 C -0.9329493823050056 0.07781271499653397 -0.9305738662640163 0.06845893145169646 -0.9286845492598669 0.05901133771925304 C -0.9248625406486958 0.03990028595170314 -0.9191491976099853 0.021170527204745104 -0.9150669413815852 0.0021199981388762 C -0.9130081608127277 -0.007487980753022372 -0.9112963770668429 -0.01720086566116874 -0.9089138000439911 -0.026729156329187043 C -0.8954343856678812 -0.08064681383362526 -0.8845665258693178 -0.13521408166944193 -0.8710871114932085 -0.18913173917387982 C -0.8681154468406592 -0.20101839778407782 -0.8653818381480559 -0.2130644328420364 -0.8628156755967706 -0.22504187550475596 C -0.8614640019258898 -0.23134834101994262 -0.8579476329582085 -0.23803912569080482 -0.8582764729706769 -0.24461088238169404 C -0.8584156751845436 -0.24738483954208484 -0.8599186556096283 -0.25035852161802374 -0.8609999945463336 -0.25288231827813185 C -0.8651568954401406 -0.25115036029835336 -0.8664712467783183 -0.24776814998606628 -0.8686662034259585 -0.24400565536488178 C -0.8712969235257036 -0.23949570537793374 -0.8737359884034578 -0.23483545734847727 -0.8759289276277085 -0.2300854339781936 C -0.8825208585524915 -0.21580207638141824 -0.8892983924290973 -0.20157924148632383 -0.8954979345046465 -0.18711431578450471 C -0.8974185215713317 -0.18263260972500805 -0.8993966052046141 -0.17814787753042732 -0.9011467199948967 -0.1735975790756918 C -0.9022139369678763 -0.17082160449191175 -0.902926087424326 -0.16739803700014222 -0.9045763397568345 -0.16492265850137916 C -0.9102412646341997 -0.16548955447379343 -0.9150427323009125 -0.16990972911991425 -0.9193035304992726 -0.17339583673675435 C -0.9250481436005183 -0.17809643323399832 -0.9313082083777491 -0.18220995952493385 -0.9370568563257733 -0.18691257344556728 C -0.9397985347119336 -0.18915594825455223 -0.9423707495333871 -0.19144572380149322 -0.9459335192390236 -0.19215787425794234 C -0.9518314565178613 -0.18625993697910448 -0.9555909250039619 -0.1782255483309183 -0.9608624523203989 -0.1717818980252543 C -0.9648438373793309 -0.1669158728100817 -0.9694879460216722 -0.16186928820155977 -0.9729669926566493 -0.15665122260494135 M -0.7492347387749546 0.5563062032002065 C -0.7545213967668121 0.5578918979842552 -0.7604495953964904 0.556533163331511 -0.7659793529067674 0.5577183995727691 C -0.7778246543374834 0.5602563181966028 -0.7912980164434247 0.5714227566567941 -0.7912980164434247 0.5842475171430513 C -0.785990175505979 0.5922092785492198 -0.7709139705171794 0.5894655827396699 -0.7637601871784551 0.5861640693629574 C -0.7426296945981409 0.5764118446987184 -0.7340072270319515 0.5528957489604681 -0.7294639895590792 0.5316936378498308 C -0.7228952590032738 0.501037880736582 -0.7130522502865129 0.47082192192221684 -0.7044479395308282 0.44070784298901555 C -0.6970883790063881 0.41494837244177984 -0.6904228121278926 0.3889982553842485 -0.6830632516034526 0.3632387848370128 C -0.6788508715664376 0.3484964634191545 -0.675172100015912 0.3336018265353986 -0.6709587112672021 0.31885547027076144 C -0.6683118517803418 0.3095904533550564 -0.6653250564523725 0.29979081924116724 -0.6658142816242958 0.2900063158026981 C -0.6665526585848071 0.27523373303399923 -0.6726805821300336 0.26033001774499087 -0.6778179507910772 0.24663171293113417 C -0.6827858558874135 0.23338329353310805 -0.6859693499958474 0.21951552515454387 -0.690931202822015 0.20628324514363294 C -0.6946513315520226 0.1963635743380756 -0.69690378476626 0.1859173560278915 -0.7006148350910155 0.17602189430300696 C -0.7043823732706733 0.16597512582391893 -0.7084051155090875 0.15515064062822714 -0.7110045655462971 0.14475183176769346 C -0.7122876468219396 0.13962051537681786 -0.7141668767091428 0.1346737932260702 -0.715745510511329 0.12962115634738047 C -0.7161368906488672 0.12837035384596784 -0.7167481699358478 0.12437888167008948 -0.7181664185785785 0.12377062851819265 C -0.7193889771525396 0.12324710714864995 -0.719376872612204 0.1273606334395857 -0.719376872612204 0.1276037329580053 C -0.719376872612204 0.1316385797367554 -0.719982099629016 0.1356512348582226 -0.719982099629016 0.13970827329425584 C -0.719982099629016 0.14983775613230788 -0.7209908113237038 0.15987443749444885 -0.7214951671710472 0.1699696241348817 C -0.7225896193597835 0.19185564177451697 -0.7253434022862805 0.21365188407332525 -0.7264378544750163 0.23553588428957128 C -0.7269240535118556 0.24525280404449645 -0.726983567501842 0.2551149782834564 -0.7279509220170476 0.2647885234355096 C -0.7326313442803977 0.31159375478070594 -0.7354143798460407 0.3586864689588881 -0.7385423948112667 0.40560467601388905 C -0.7403903546359344 0.43332407338390266 -0.7442153893821896 0.4609688260885091 -0.7456033766740796 0.4887225196561419 C -0.746728090213656 0.5112087207541164 -0.7469933813893587 0.5338926293442497 -0.7492347387749546 0.5563062032002065" fill="#171716" transform="matrix(1,0,0,1,0,0)" fill-rule="evenodd"></path></g></g><g><path d=" M 0.082763671875 0.9558105468749998 L 0.1962890625 0.9558105468749998 L 0.1962890625 0.24755859374999978 L 0.082763671875 0.24755859374999978 L 0.082763671875 0.04467773437499978 L 0.6240234375 0.04614257812499978 Q 0.699462890625 0.04614257812499978 0.7620849609375 0.07287597656249978 Q 0.82470703125 0.09960937499999978 0.8701171875 0.14538574218749978 Q 0.91552734375 0.19116210937499978 0.9407958984375 0.2523193359374998 Q 0.966064453125 0.3134765624999998 0.966064453125 0.3823242187499998 Q 0.966064453125 0.4628906249999998 0.9378662109375 0.5156249999999998 Q 0.90966796875 0.5683593749999998 0.857666015625 0.6005859374999998 Q 0.91259765625 0.6357421874999998 0.9444580078125 0.6873779296874998 Q 0.976318359375 0.7390136718749998 0.976318359375 0.8129882812499998 Q 0.976318359375 0.8884277343749998 0.9503173828125 0.9514160156249998 Q 0.92431640625 1.0144042968749998 0.8792724609375 1.0601806640624998 Q 0.834228515625 1.1059570312499998 0.772705078125 1.1312255859374998 Q 0.711181640625 1.1564941406249998 0.64013671875 1.1564941406249998 L 0.082763671875 1.1564941406249998 L 0.082763671875 0.9558105468749998 M 0.439453125 0.6972656249999998 L 0.439453125 0.9558105468749998 L 0.6240234375 0.9558105468749998 Q 0.645263671875 0.9558105468749998 0.6639404296875 0.9448242187499998 Q 0.6826171875 0.9338378906249998 0.6961669921875 0.9158935546874998 Q 0.709716796875 0.8979492187499998 0.7177734375 0.8741455078124998 Q 0.725830078125 0.8503417968749998 0.725830078125 0.8247070312499998 Q 0.725830078125 0.7976074218749998 0.7177734375 0.7745361328124998 Q 0.709716796875 0.7514648437499998 0.69580078125 0.7342529296874998 Q 0.681884765625 0.7170410156249998 0.6632080078125 0.7071533203124998 Q 0.64453125 0.6972656249999998 0.6240234375 0.6972656249999998 L 0.439453125 0.6972656249999998 M 0.439453125 0.24755859374999978 L 0.439453125 0.4965820312499998 L 0.61376953125 0.4965820312499998 Q 0.63427734375 0.4965820312499998 0.652587890625 0.4863281249999998 Q 0.6708984375 0.4760742187499998 0.6844482421875 0.4588623046874998 Q 0.697998046875 0.4416503906249998 0.7060546875 0.4200439453124998 Q 0.714111328125 0.3984374999999998 0.714111328125 0.3749999999999998 Q 0.714111328125 0.3522949218749998 0.7060546875 0.3295898437499998 Q 0.697998046875 0.3068847656249998 0.6844482421875 0.2885742187499998 Q 0.6708984375 0.2702636718749998 0.652587890625 0.2589111328124998 Q 0.63427734375 0.24755859374999978 0.61376953125 0.24755859374999978 L 0.439453125 0.24755859374999978 M 1.53955078125 1.1154785156249998 Q 1.513916015625 1.1315917968749998 1.49267578125 1.1429443359374998 Q 1.471435546875 1.1542968749999998 1.4501953125 1.1612548828124998 Q 1.428955078125 1.1682128906249998 1.40625 1.1715087890624998 Q 1.383544921875 1.1748046874999998 1.3564453125 1.1748046874999998 Q 1.288330078125 1.1748046874999998 1.2344970703125 1.1561279296874998 Q 1.1806640625 1.1374511718749998 1.1436767578125 1.1048583984374998 Q 1.106689453125 1.0722656249999998 1.0869140625 1.0279541015624998 Q 1.067138671875 0.9836425781249998 1.067138671875 0.9316406249999998 Q 1.067138671875 0.8789062499999998 1.0872802734375 0.8342285156249998 Q 1.107421875 0.7895507812499998 1.1455078125 0.7576904296874998 Q 1.18359375 0.7258300781249998 1.2388916015625 0.7078857421874998 Q 1.294189453125 0.6899414062499998 1.365234375 0.6899414062499998 Q 1.417236328125 0.6899414062499998 1.4600830078125 0.6954345703124998 Q 1.5029296875 0.7009277343749998 1.53955078125 0.7089843749999998 L 1.53955078125 0.6855468749999998 Q 1.53955078125 0.6569824218749998 1.528564453125 0.6361083984374998 Q 1.517578125 0.6152343749999998 1.497802734375 0.6016845703124998 Q 1.47802734375 0.5881347656249998 1.4501953125 0.5819091796874998 Q 1.42236328125 0.5756835937499998 1.389404296875 0.5756835937499998 Q 1.320556640625 0.5756835937499998 1.2681884765625 0.5892333984374998 Q 1.2158203125 0.6027832031249998 1.16748046875 0.6284179687499998 L 1.09716796875 0.4863281249999998 Q 1.171875 0.4350585937499998 1.2535400390625 0.4079589843749998 Q 1.335205078125 0.3808593749999998 1.4267578125 0.3808593749999998 Q 1.497802734375 0.3808593749999998 1.5582275390625 0.3966064453124998 Q 1.61865234375 0.4123535156249998 1.661865234375 0.4478759765624998 Q 1.705078125 0.4833984374999998 1.7296142578125 0.5405273437499998 Q 1.754150390625 0.5976562499999998 1.754150390625 0.6796874999999998 L 1.754150390625 0.9558105468749998 L 1.85595703125 0.9558105468749998 L 1.85595703125 1.1564941406249998 L 1.53955078125 1.1564941406249998 L 1.53955078125 1.1154785156249998 M 1.37255859375 1.0019531249999998 Q 1.424560546875 1.0019531249999998 1.467041015625 0.9851074218749998 Q 1.509521484375 0.9682617187499998 1.53955078125 0.9440917968749998 L 1.53955078125 0.8474121093749998 L 1.36376953125 0.8474121093749998 Q 1.346923828125 0.8474121093749998 1.330810546875 0.8525390624999998 Q 1.314697265625 0.8576660156249998 1.3018798828125 0.8671874999999998 Q 1.2890625 0.8767089843749998 1.2813720703125 0.8906249999999998 Q 1.273681640625 0.9045410156249998 1.273681640625 0.9228515624999998 Q 1.273681640625 0.9565429687499998 1.2982177734375 0.9792480468749998 Q 1.32275390625 1.0019531249999998 1.37255859375 1.0019531249999998 M 1.981201171875 0.3977050781249998 L 2.37744140625 0.3977050781249998 L 2.37744140625 0.5983886718749998 L 2.28515625 0.5983886718749998 L 2.408935546875 0.9243164062499998 L 2.5283203125 0.5983886718749998 L 2.4462890625 0.5983886718749998 L 2.4462890625 0.3977050781249998 L 2.842529296875 0.3977050781249998 L 2.842529296875 0.5983886718749998 L 2.741455078125 0.5983886718749998 L 2.51513671875 1.1594238281249998 L 2.291748046875 1.1594238281249998 L 2.0654296875 0.5983886718749998 L 1.981201171875 0.5983886718749998 L 1.981201171875 0.3977050781249998 M 3.126708984375 0.8247070312499998 L 3.12890625 0.8474121093749998 Q 3.136962890625 0.8803710937499998 3.1563720703125 0.9052734374999998 Q 3.17578125 0.9301757812499998 3.2021484375 0.9470214843749998 Q 3.228515625 0.9638671874999998 3.2607421875 0.9722900390624998 Q 3.29296875 0.9807128906249998 3.325927734375 0.9807128906249998 Q 3.35888671875 0.9807128906249998 3.3885498046875 0.9766845703124998 Q 3.418212890625 0.9726562499999998 3.446044921875 0.9656982421874998 Q 3.473876953125 0.9587402343749998 3.500244140625 0.9495849609374998 Q 3.526611328125 0.9404296874999998 3.5537109375 0.9301757812499998 L 3.63427734375 1.0803222656249998 Q 3.592529296875 1.1059570312499998 3.5577392578125 1.1239013671874998 Q 3.52294921875 1.1418457031249998 3.48779296875 1.1535644531249998 Q 3.45263671875 1.1652832031249998 3.4130859375 1.1707763671874998 Q 3.37353515625 1.1762695312499998 3.32080078125 1.1762695312499998 Q 3.221923828125 1.1762695312499998 3.14501953125 1.1436767578124998 Q 3.068115234375 1.1110839843749998 3.0157470703125 1.0554199218749998 Q 2.96337890625 0.9997558593749998 2.9359130859375 0.9250488281249998 Q 2.908447265625 0.8503417968749998 2.908447265625 0.7668457031249998 Q 2.908447265625 0.6833496093749998 2.9373779296875 0.6101074218749998 Q 2.96630859375 0.5368652343749998 3.01904296875 0.4822998046874998 Q 3.07177734375 0.4277343749999998 3.14501953125 0.3962402343749998 Q 3.21826171875 0.3647460937499998 3.3076171875 0.3647460937499998 Q 3.39697265625 0.3647460937499998 3.4661865234375 0.3944091796874998 Q 3.535400390625 0.4240722656249998 3.5830078125 0.4764404296874998 Q 3.630615234375 0.5288085937499998 3.65625 0.5994873046874998 Q 3.681884765625 0.6701660156249998 3.68408203125 0.7514648437499998 Q 3.686279296875 0.7697753906249998 3.6866455078125 0.7877197265624998 Q 3.68701171875 0.8056640624999998 3.685546875 0.8247070312499998 L 3.126708984375 0.8247070312499998 M 3.3017578125 0.5478515624999998 Q 3.2607421875 0.5478515624999998 3.2318115234375 0.5577392578124998 Q 3.202880859375 0.5676269531249998 3.18310546875 0.5848388671874998 Q 3.163330078125 0.6020507812499998 3.151611328125 0.6240234374999998 Q 3.139892578125 0.6459960937499998 3.13330078125 0.6701660156249998 L 3.450439453125 0.6701660156249998 Q 3.4453125 0.6452636718749998 3.435791015625 0.6232910156249998 Q 3.42626953125 0.6013183593749998 3.409423828125 0.5844726562499998 Q 3.392578125 0.5676269531249998 3.3665771484375 0.5577392578124998 Q 3.340576171875 0.5478515624999998 3.3017578125 0.5478515624999998 M 3.7822265625 0.016845703124999778 L 4.124267578125 0.016845703124999778 L 4.124267578125 0.9558105468749998 L 4.241455078125 0.9558105468749998 L 4.241455078125 1.1564941406249998 L 3.7822265625 1.1564941406249998 L 3.7822265625 0.9558105468749998 L 3.8994140625 0.9558105468749998 L 3.8994140625 0.21752929687499978 L 3.7822265625 0.21752929687499978 L 3.7822265625 0.016845703124999778 M 4.346923828125 0.3977050781249998 L 4.718994140625 0.3977050781249998 L 4.718994140625 0.5983886718749998 L 4.660400390625 0.5983886718749998 L 4.76953125 0.8825683593749998 L 4.881591796875 0.5983886718749998 L 4.81640625 0.5983886718749998 L 4.81640625 0.3977050781249998 L 5.1884765625 0.3977050781249998 L 5.1884765625 0.5983886718749998 L 5.105712890625 0.5983886718749998 L 4.81201171875 1.3007812499999998 L 4.9423828125 1.3007812499999998 L 4.9423828125 1.5014648437499998 L 4.471435546875 1.5014648437499998 L 4.471435546875 1.3007812499999998 L 4.60400390625 1.3007812499999998 L 4.6611328125 1.1564941406249998 L 4.423828125 0.5983886718749998 L 4.346923828125 0.5983886718749998 L 4.346923828125 0.3977050781249998 M 5.79052734375 0.9558105468749998 L 5.905517578125 0.9558105468749998 L 5.905517578125 0.24023437499999978 L 5.770751953125 0.24023437499999978 L 5.770751953125 0.3837890624999998 L 5.531982421875 0.3837890624999998 L 5.531982421875 0.04614257812499978 L 6.5419921875 0.04614257812499978 L 6.5419921875 0.3837890624999998 L 6.3017578125 0.3837890624999998 L 6.3017578125 0.24023437499999978 L 6.148681640625 0.24023437499999978 L 6.148681640625 0.9558105468749998 L 6.265869140625 0.9558105468749998 L 6.265869140625 1.1564941406249998 L 5.79052734375 1.1564941406249998 L 5.79052734375 0.9558105468749998 M 7.0341796875 1.1154785156249998 Q 7.008544921875 1.1315917968749998 6.9873046875 1.1429443359374998 Q 6.966064453125 1.1542968749999998 6.94482421875 1.1612548828124998 Q 6.923583984375 1.1682128906249998 6.90087890625 1.1715087890624998 Q 6.878173828125 1.1748046874999998 6.85107421875 1.1748046874999998 Q 6.782958984375 1.1748046874999998 6.7291259765625 1.1561279296874998 Q 6.67529296875 1.1374511718749998 6.6383056640625 1.1048583984374998 Q 6.601318359375 1.0722656249999998 6.58154296875 1.0279541015624998 Q 6.561767578125 0.9836425781249998 6.561767578125 0.9316406249999998 Q 6.561767578125 0.8789062499999998 6.5819091796875 0.8342285156249998 Q 6.60205078125 0.7895507812499998 6.64013671875 0.7576904296874998 Q 6.67822265625 0.7258300781249998 6.7335205078125 0.7078857421874998 Q 6.788818359375 0.6899414062499998 6.85986328125 0.6899414062499998 Q 6.911865234375 0.6899414062499998 6.9547119140625 0.6954345703124998 Q 6.99755859375 0.7009277343749998 7.0341796875 0.7089843749999998 L 7.0341796875 0.6855468749999998 Q 7.0341796875 0.6569824218749998 7.023193359375 0.6361083984374998 Q 7.01220703125 0.6152343749999998 6.992431640625 0.6016845703124998 Q 6.97265625 0.5881347656249998 6.94482421875 0.5819091796874998 Q 6.9169921875 0.5756835937499998 6.884033203125 0.5756835937499998 Q 6.815185546875 0.5756835937499998 6.7628173828125 0.5892333984374998 Q 6.71044921875 0.6027832031249998 6.662109375 0.6284179687499998 L 6.591796875 0.4863281249999998 Q 6.66650390625 0.4350585937499998 6.7481689453125 0.4079589843749998 Q 6.829833984375 0.3808593749999998 6.92138671875 0.3808593749999998 Q 6.992431640625 0.3808593749999998 7.0528564453125 0.3966064453124998 Q 7.11328125 0.4123535156249998 7.156494140625 0.4478759765624998 Q 7.19970703125 0.4833984374999998 7.2242431640625 0.5405273437499998 Q 7.248779296875 0.5976562499999998 7.248779296875 0.6796874999999998 L 7.248779296875 0.9558105468749998 L 7.3505859375 0.9558105468749998 L 7.3505859375 1.1564941406249998 L 7.0341796875 1.1564941406249998 L 7.0341796875 1.1154785156249998 M 6.8671875 1.0019531249999998 Q 6.919189453125 1.0019531249999998 6.961669921875 0.9851074218749998 Q 7.004150390625 0.9682617187499998 7.0341796875 0.9440917968749998 L 7.0341796875 0.8474121093749998 L 6.8583984375 0.8474121093749998 Q 6.841552734375 0.8474121093749998 6.825439453125 0.8525390624999998 Q 6.809326171875 0.8576660156249998 6.7965087890625 0.8671874999999998 Q 6.78369140625 0.8767089843749998 6.7760009765625 0.8906249999999998 Q 6.768310546875 0.9045410156249998 6.768310546875 0.9228515624999998 Q 6.768310546875 0.9565429687499998 6.7928466796875 0.9792480468749998 Q 6.8173828125 1.0019531249999998 6.8671875 1.0019531249999998 M 7.4208984375 0.3977050781249998 L 7.817138671875 0.3977050781249998 L 7.817138671875 0.5983886718749998 L 7.7314453125 0.5983886718749998 L 7.81201171875 0.8686523437499998 L 7.968017578125 0.3977050781249998 L 8.1826171875 0.3977050781249998 L 8.340087890625 0.8928222656249998 L 8.436767578125 0.5983886718749998 L 8.35546875 0.5983886718749998 L 8.35546875 0.3977050781249998 L 8.751708984375 0.3977050781249998 L 8.751708984375 0.5983886718749998 L 8.64990234375 0.5983886718749998 L 8.447021484375 1.1594238281249998 L 8.22802734375 1.1594238281249998 L 8.069091796875 0.6752929687499998 L 7.9072265625 1.1594238281249998 L 7.694091796875 1.1594238281249998 L 7.505859375 0.5983886718749998 L 7.4208984375 0.5983886718749998 L 7.4208984375 0.3977050781249998 M 9.16845703125 0.3977050781249998 L 9.306884765625 0.3977050781249998 L 9.306884765625 0.5895996093749998 L 9.16845703125 0.5895996093749998 L 9.16845703125 0.9558105468749998 L 9.308349609375 0.9558105468749998 L 9.308349609375 1.1564941406249998 L 8.83740234375 1.1564941406249998 L 8.83740234375 0.9558105468749998 L 8.950927734375 0.9558105468749998 L 8.950927734375 0.5895996093749998 L 8.8359375 0.5895996093749998 L 8.8359375 0.3977050781249998 L 8.950927734375 0.3977050781249998 L 8.950927734375 0.2717285156249998 Q 8.950927734375 0.20507812499999978 8.974365234375 0.15454101562499978 Q 8.997802734375 0.10400390624999978 9.0369873046875 0.06958007812499978 Q 9.076171875 0.03515624999999978 9.12744140625 0.017578124999999778 Q 9.1787109375 -2.220446049250313e-16 9.235107421875 -2.220446049250313e-16 Q 9.27685546875 -2.220446049250313e-16 9.309814453125 0.006225585937499778 Q 9.3427734375 0.012451171874999778 9.36767578125 0.021972656249999778 Q 9.392578125 0.03149414062499978 9.4097900390625 0.04248046874999978 Q 9.427001953125 0.05346679687499978 9.437255859375 0.06298828124999978 L 9.35302734375 0.21752929687499978 Q 9.336181640625 0.20507812499999978 9.31494140625 0.19775390624999978 Q 9.293701171875 0.19042968749999978 9.262939453125 0.19042968749999978 Q 9.2431640625 0.19042968749999978 9.2259521484375 0.19702148437499978 Q 9.208740234375 0.20361328124999978 9.1959228515625 0.21606445312499978 Q 9.18310546875 0.22851562499999978 9.17578125 0.24719238281249978 Q 9.16845703125 0.2658691406249998 9.16845703125 0.2907714843749998 L 9.16845703125 0.3977050781249998 M 9.43505859375 0.3977050781249998 L 9.775634765625 0.3977050781249998 L 9.775634765625 0.9558105468749998 L 9.881103515625 0.9558105468749998 L 9.881103515625 1.1564941406249998 L 9.43505859375 1.1564941406249998 L 9.43505859375 0.9558105468749998 L 9.54931640625 0.9558105468749998 L 9.54931640625 0.5983886718749998 L 9.43505859375 0.5983886718749998 L 9.43505859375 0.3977050781249998 M 9.53759765625 0.15307617187499978 Q 9.53759765625 0.12597656249999978 9.5474853515625 0.10217285156249978 Q 9.557373046875 0.07836914062499978 9.574951171875 0.06079101562499978 Q 9.592529296875 0.04321289062499978 9.6163330078125 0.03295898437499978 Q 9.64013671875 0.022705078124999778 9.66796875 0.022705078124999778 Q 9.6943359375 0.022705078124999778 9.7177734375 0.03295898437499978 Q 9.7412109375 0.04321289062499978 9.7587890625 0.06079101562499978 Q 9.7763671875 0.07836914062499978 9.78662109375 0.10217285156249978 Q 9.796875 0.12597656249999978 9.796875 0.15307617187499978 Q 9.796875 0.18017578124999978 9.78662109375 0.20397949218749978 Q 9.7763671875 0.22778320312499978 9.7587890625 0.24536132812499978 Q 9.7412109375 0.2629394531249998 9.7177734375 0.2731933593749998 Q 9.6943359375 0.2834472656249998 9.66796875 0.2834472656249998 Q 9.64013671875 0.2834472656249998 9.6163330078125 0.2731933593749998 Q 9.592529296875 0.2629394531249998 9.574951171875 0.24536132812499978 Q 9.557373046875 0.22778320312499978 9.5474853515625 0.20397949218749978 Q 9.53759765625 0.18017578124999978 9.53759765625 0.15307617187499978 M 9.99755859375 0.016845703124999778 L 10.339599609375 0.016845703124999778 L 10.339599609375 0.6738281249999998 L 10.4677734375 0.6738281249999998 L 10.5205078125 0.5983886718749998 L 10.5205078125 0.3977050781249998 L 10.9130859375 0.3977050781249998 L 10.9130859375 0.5983886718749998 L 10.77685546875 0.5983886718749998 L 10.635498046875 0.7617187499999998 L 10.77978515625 0.9360351562499998 L 10.90576171875 0.9360351562499998 L 10.90576171875 1.1564941406249998 L 10.699951171875 1.1564941406249998 L 10.453857421875 0.8312988281249998 L 10.339599609375 0.8312988281249998 L 10.339599609375 0.9558105468749998 L 10.417236328125 0.9558105468749998 L 10.417236328125 1.1564941406249998 L 9.99755859375 1.1564941406249998 L 9.99755859375 0.9558105468749998 L 10.11474609375 0.9558105468749998 L 10.11474609375 0.21752929687499978 L 9.99755859375 0.21752929687499978 L 9.99755859375 0.016845703124999778" fill="#322430" fill-rule="nonzero"></path></g><g></g></g><defs><clipPath id="SvgjsClipPath3359"><path d=" M -1.5846823347127197 -0.6346942172319355 h 1.1846823347127198 v 2.425882575088871 h -1.1846823347127198 Z"></path></clipPath><clipPath id="SvgjsClipPath335719bc434f-0845-48f8-8132-36ca0433d684"><path d=" M -1.5846823347127197 -0.6346942172319355 L -0.3999999999999999 -0.6346942172319355 L -0.3999999999999999 1.7911883578569352 L -1.5846823347127195 1.7911883578569352 Z"></path></clipPath></defs></svg>